<mxfile host="app.diagrams.net" modified="2024-04-15T02:44:56.230Z" agent="Mozilla/5.0 (Windows NT 10.0; Win64; x64) AppleWebKit/537.36 (KHTML, like Gecko) Chrome/123.0.0.0 Safari/537.36" etag="QbaY_gDNcDnmT0NOquV9" version="24.2.5" type="github">
  <diagram name="Page-1" id="2a216829-ef6e-dabb-86c1-c78162f3ba2b">
    <mxGraphModel dx="1687" dy="878" grid="1" gridSize="10" guides="1" tooltips="1" connect="1" arrows="1" fold="1" page="1" pageScale="1" pageWidth="1100" pageHeight="850" background="none" math="0" shadow="0">
      <root>
        <mxCell id="0" />
        <mxCell id="1" parent="0" />
        <mxCell id="7a84cebc1def654-34" value="" style="shape=message;whiteSpace=wrap;html=1;fontFamily=Noto Sans Traditional Chinese;fontSource=https%3A%2F%2Ffonts.googleapis.com%2Fcss%3Ffamily%3DNoto%2BSans%2BTraditional%2BChinese;fontStyle=1" parent="1" vertex="1">
          <mxGeometry x="490" y="425" width="40" height="30" as="geometry" />
        </mxCell>
        <mxCell id="TqzZcvi7zWRWRfFv5Fhy-15" style="edgeStyle=orthogonalEdgeStyle;rounded=0;orthogonalLoop=1;jettySize=auto;html=1;exitX=0.5;exitY=1;exitDx=0;exitDy=0;dashed=1;endArrow=block;endFill=0;fontFamily=Noto Sans Traditional Chinese;fontSource=https%3A%2F%2Ffonts.googleapis.com%2Fcss%3Ffamily%3DNoto%2BSans%2BTraditional%2BChinese;fontStyle=1" parent="1" source="TqzZcvi7zWRWRfFv5Fhy-11" target="TqzZcvi7zWRWRfFv5Fhy-14" edge="1">
          <mxGeometry relative="1" as="geometry" />
        </mxCell>
        <mxCell id="6lyfN-rFkKTdbZu22b-i-31" style="edgeStyle=orthogonalEdgeStyle;rounded=0;orthogonalLoop=1;jettySize=auto;html=1;" edge="1" parent="1" source="TqzZcvi7zWRWRfFv5Fhy-11" target="6lyfN-rFkKTdbZu22b-i-29">
          <mxGeometry relative="1" as="geometry" />
        </mxCell>
        <mxCell id="TqzZcvi7zWRWRfFv5Fhy-11" value="填寫部門請購單" style="html=1;whiteSpace=wrap;rounded=1;fontFamily=Noto Sans Traditional Chinese;fontSource=https%3A%2F%2Ffonts.googleapis.com%2Fcss%3Ffamily%3DNoto%2BSans%2BTraditional%2BChinese;fontStyle=1;fillColor=#fad7ac;strokeColor=#b46504;" parent="1" vertex="1">
          <mxGeometry x="150" y="120" width="120" height="80" as="geometry" />
        </mxCell>
        <mxCell id="TqzZcvi7zWRWRfFv5Fhy-12" value="" style="html=1;shape=plus;fontFamily=Noto Sans Traditional Chinese;fontSource=https%3A%2F%2Ffonts.googleapis.com%2Fcss%3Ffamily%3DNoto%2BSans%2BTraditional%2BChinese;fontStyle=1" parent="TqzZcvi7zWRWRfFv5Fhy-11" vertex="1">
          <mxGeometry x="0.5" y="1" width="14" height="14" relative="1" as="geometry">
            <mxPoint x="-7" y="-14" as="offset" />
          </mxGeometry>
        </mxCell>
        <mxCell id="TqzZcvi7zWRWRfFv5Fhy-32" style="edgeStyle=orthogonalEdgeStyle;rounded=0;orthogonalLoop=1;jettySize=auto;html=1;fontFamily=Noto Sans Traditional Chinese;fontSource=https%3A%2F%2Ffonts.googleapis.com%2Fcss%3Ffamily%3DNoto%2BSans%2BTraditional%2BChinese;fontStyle=1" parent="1" source="TqzZcvi7zWRWRfFv5Fhy-14" target="TqzZcvi7zWRWRfFv5Fhy-19" edge="1">
          <mxGeometry relative="1" as="geometry" />
        </mxCell>
        <mxCell id="TqzZcvi7zWRWRfFv5Fhy-14" value="物料品項&lt;div&gt;&lt;br&gt;&lt;div&gt;新增 /&amp;nbsp;&lt;span style=&quot;background-color: initial;&quot;&gt;資訊修改&lt;/span&gt;&lt;/div&gt;&lt;/div&gt;" style="shape=ext;rounded=1;html=1;whiteSpace=wrap;fontFamily=Noto Sans Traditional Chinese;fontSource=https%3A%2F%2Ffonts.googleapis.com%2Fcss%3Ffamily%3DNoto%2BSans%2BTraditional%2BChinese;fontStyle=1" parent="1" vertex="1">
          <mxGeometry x="150" y="260" width="120" height="80" as="geometry" />
        </mxCell>
        <mxCell id="TqzZcvi7zWRWRfFv5Fhy-41" style="edgeStyle=orthogonalEdgeStyle;rounded=0;orthogonalLoop=1;jettySize=auto;html=1;fontFamily=Noto Sans Traditional Chinese;fontSource=https%3A%2F%2Ffonts.googleapis.com%2Fcss%3Ffamily%3DNoto%2BSans%2BTraditional%2BChinese;fontStyle=1" parent="1" source="TqzZcvi7zWRWRfFv5Fhy-19" target="TqzZcvi7zWRWRfFv5Fhy-38" edge="1">
          <mxGeometry relative="1" as="geometry" />
        </mxCell>
        <mxCell id="TqzZcvi7zWRWRfFv5Fhy-19" value="&lt;div&gt;[&amp;nbsp;&lt;span style=&quot;background-color: initial;&quot;&gt;排程 / 集單&amp;nbsp;&lt;/span&gt;&lt;span style=&quot;background-color: initial;&quot;&gt;]&lt;/span&gt;&lt;/div&gt;" style="html=1;whiteSpace=wrap;rounded=1;fontFamily=Noto Sans Traditional Chinese;fontSource=https%3A%2F%2Ffonts.googleapis.com%2Fcss%3Ffamily%3DNoto%2BSans%2BTraditional%2BChinese;fontStyle=1" parent="1" vertex="1">
          <mxGeometry x="150" y="400" width="120" height="80" as="geometry" />
        </mxCell>
        <mxCell id="TqzZcvi7zWRWRfFv5Fhy-20" value="" style="shape=mxgraph.bpmn.timer_start;perimeter=ellipsePerimeter;html=1;labelPosition=right;labelBackgroundColor=#ffffff;align=left;fontFamily=Noto Sans Traditional Chinese;fontSource=https%3A%2F%2Ffonts.googleapis.com%2Fcss%3Ffamily%3DNoto%2BSans%2BTraditional%2BChinese;fontStyle=1" parent="TqzZcvi7zWRWRfFv5Fhy-19" vertex="1">
          <mxGeometry x="1" width="30" height="30" relative="1" as="geometry">
            <mxPoint x="-15" y="10" as="offset" />
          </mxGeometry>
        </mxCell>
        <mxCell id="TqzZcvi7zWRWRfFv5Fhy-51" style="edgeStyle=orthogonalEdgeStyle;rounded=0;orthogonalLoop=1;jettySize=auto;html=1;fontFamily=Noto Sans Traditional Chinese;fontSource=https%3A%2F%2Ffonts.googleapis.com%2Fcss%3Ffamily%3DNoto%2BSans%2BTraditional%2BChinese;fontStyle=1" parent="1" source="TqzZcvi7zWRWRfFv5Fhy-21" target="TqzZcvi7zWRWRfFv5Fhy-46" edge="1">
          <mxGeometry relative="1" as="geometry" />
        </mxCell>
        <mxCell id="TqzZcvi7zWRWRfFv5Fhy-66" value="" style="edgeStyle=orthogonalEdgeStyle;rounded=0;orthogonalLoop=1;jettySize=auto;html=1;fontFamily=Noto Sans Traditional Chinese;fontSource=https%3A%2F%2Ffonts.googleapis.com%2Fcss%3Ffamily%3DNoto%2BSans%2BTraditional%2BChinese;fontStyle=1" parent="1" source="TqzZcvi7zWRWRfFv5Fhy-21" target="TqzZcvi7zWRWRfFv5Fhy-64" edge="1">
          <mxGeometry relative="1" as="geometry" />
        </mxCell>
        <mxCell id="TqzZcvi7zWRWRfFv5Fhy-21" value="&lt;div&gt;接收&lt;span style=&quot;background-color: initial;&quot;&gt;資材部&lt;/span&gt;&lt;/div&gt;&lt;div&gt;&lt;br&gt;&lt;/div&gt;修改確認郵件" style="html=1;whiteSpace=wrap;rounded=1;fontFamily=Noto Sans Traditional Chinese;fontSource=https%3A%2F%2Ffonts.googleapis.com%2Fcss%3Ffamily%3DNoto%2BSans%2BTraditional%2BChinese;fontStyle=1" parent="1" vertex="1">
          <mxGeometry x="510" y="260" width="120" height="80" as="geometry" />
        </mxCell>
        <mxCell id="TqzZcvi7zWRWRfFv5Fhy-22" value="" style="html=1;shape=message;fontFamily=Noto Sans Traditional Chinese;fontSource=https%3A%2F%2Ffonts.googleapis.com%2Fcss%3Ffamily%3DNoto%2BSans%2BTraditional%2BChinese;fontStyle=1" parent="TqzZcvi7zWRWRfFv5Fhy-21" vertex="1">
          <mxGeometry width="20" height="14" relative="1" as="geometry">
            <mxPoint x="7" y="7" as="offset" />
          </mxGeometry>
        </mxCell>
        <mxCell id="TqzZcvi7zWRWRfFv5Fhy-31" style="edgeStyle=orthogonalEdgeStyle;rounded=0;orthogonalLoop=1;jettySize=auto;html=1;fontFamily=Noto Sans Traditional Chinese;fontSource=https%3A%2F%2Ffonts.googleapis.com%2Fcss%3Ffamily%3DNoto%2BSans%2BTraditional%2BChinese;fontStyle=1" parent="1" source="TqzZcvi7zWRWRfFv5Fhy-23" target="TqzZcvi7zWRWRfFv5Fhy-21" edge="1">
          <mxGeometry relative="1" as="geometry" />
        </mxCell>
        <mxCell id="TqzZcvi7zWRWRfFv5Fhy-23" value="" style="shape=message;whiteSpace=wrap;html=1;fontFamily=Noto Sans Traditional Chinese;fontSource=https%3A%2F%2Ffonts.googleapis.com%2Fcss%3Ffamily%3DNoto%2BSans%2BTraditional%2BChinese;fontStyle=1" parent="1" vertex="1">
          <mxGeometry x="610" y="400" width="40" height="30" as="geometry" />
        </mxCell>
        <mxCell id="TqzZcvi7zWRWRfFv5Fhy-40" style="edgeStyle=orthogonalEdgeStyle;rounded=0;orthogonalLoop=1;jettySize=auto;html=1;fontFamily=Noto Sans Traditional Chinese;fontSource=https%3A%2F%2Ffonts.googleapis.com%2Fcss%3Ffamily%3DNoto%2BSans%2BTraditional%2BChinese;fontStyle=1" parent="1" source="TqzZcvi7zWRWRfFv5Fhy-38" target="7a84cebc1def654-34" edge="1">
          <mxGeometry relative="1" as="geometry" />
        </mxCell>
        <mxCell id="TqzZcvi7zWRWRfFv5Fhy-44" style="edgeStyle=orthogonalEdgeStyle;rounded=0;orthogonalLoop=1;jettySize=auto;html=1;fontFamily=Noto Sans Traditional Chinese;fontSource=https%3A%2F%2Ffonts.googleapis.com%2Fcss%3Ffamily%3DNoto%2BSans%2BTraditional%2BChinese;fontStyle=1" parent="1" source="TqzZcvi7zWRWRfFv5Fhy-38" target="TqzZcvi7zWRWRfFv5Fhy-42" edge="1">
          <mxGeometry relative="1" as="geometry" />
        </mxCell>
        <mxCell id="TqzZcvi7zWRWRfFv5Fhy-38" value="向資材部寄出&lt;div&gt;&lt;br&gt;&lt;/div&gt;&lt;div&gt;物料資訊&lt;span style=&quot;background-color: initial;&quot;&gt;變更申請&lt;/span&gt;&lt;/div&gt;" style="html=1;whiteSpace=wrap;rounded=1;fontFamily=Noto Sans Traditional Chinese;fontSource=https%3A%2F%2Ffonts.googleapis.com%2Fcss%3Ffamily%3DNoto%2BSans%2BTraditional%2BChinese;fontStyle=1" parent="1" vertex="1">
          <mxGeometry x="330" y="400" width="120" height="80" as="geometry" />
        </mxCell>
        <mxCell id="TqzZcvi7zWRWRfFv5Fhy-39" value="" style="html=1;shape=plus;fontFamily=Noto Sans Traditional Chinese;fontSource=https%3A%2F%2Ffonts.googleapis.com%2Fcss%3Ffamily%3DNoto%2BSans%2BTraditional%2BChinese;fontStyle=1" parent="TqzZcvi7zWRWRfFv5Fhy-38" vertex="1">
          <mxGeometry x="0.5" y="1" width="14" height="14" relative="1" as="geometry">
            <mxPoint x="-7" y="-14" as="offset" />
          </mxGeometry>
        </mxCell>
        <mxCell id="TqzZcvi7zWRWRfFv5Fhy-45" style="edgeStyle=orthogonalEdgeStyle;rounded=0;orthogonalLoop=1;jettySize=auto;html=1;fontFamily=Noto Sans Traditional Chinese;fontSource=https%3A%2F%2Ffonts.googleapis.com%2Fcss%3Ffamily%3DNoto%2BSans%2BTraditional%2BChinese;fontStyle=1" parent="1" source="TqzZcvi7zWRWRfFv5Fhy-42" target="TqzZcvi7zWRWRfFv5Fhy-21" edge="1">
          <mxGeometry relative="1" as="geometry" />
        </mxCell>
        <mxCell id="TqzZcvi7zWRWRfFv5Fhy-42" value="&lt;div&gt;[ 等待回信&lt;span style=&quot;background-color: initial;&quot;&gt;&amp;nbsp;&lt;/span&gt;&lt;span style=&quot;background-color: initial;&quot;&gt;]&lt;/span&gt;&lt;/div&gt;" style="html=1;whiteSpace=wrap;rounded=1;fontFamily=Noto Sans Traditional Chinese;fontSource=https%3A%2F%2Ffonts.googleapis.com%2Fcss%3Ffamily%3DNoto%2BSans%2BTraditional%2BChinese;fontStyle=1" parent="1" vertex="1">
          <mxGeometry x="330" y="260" width="120" height="80" as="geometry" />
        </mxCell>
        <mxCell id="TqzZcvi7zWRWRfFv5Fhy-43" value="" style="shape=mxgraph.bpmn.timer_start;perimeter=ellipsePerimeter;html=1;labelPosition=right;labelBackgroundColor=#ffffff;align=left;fontFamily=Noto Sans Traditional Chinese;fontSource=https%3A%2F%2Ffonts.googleapis.com%2Fcss%3Ffamily%3DNoto%2BSans%2BTraditional%2BChinese;fontStyle=1" parent="TqzZcvi7zWRWRfFv5Fhy-42" vertex="1">
          <mxGeometry x="1" width="30" height="30" relative="1" as="geometry">
            <mxPoint x="-15" y="10" as="offset" />
          </mxGeometry>
        </mxCell>
        <mxCell id="TqzZcvi7zWRWRfFv5Fhy-55" value="" style="edgeStyle=orthogonalEdgeStyle;rounded=0;orthogonalLoop=1;jettySize=auto;html=1;fontFamily=Noto Sans Traditional Chinese;fontSource=https%3A%2F%2Ffonts.googleapis.com%2Fcss%3Ffamily%3DNoto%2BSans%2BTraditional%2BChinese;fontStyle=1" parent="1" source="TqzZcvi7zWRWRfFv5Fhy-46" target="TqzZcvi7zWRWRfFv5Fhy-52" edge="1">
          <mxGeometry relative="1" as="geometry" />
        </mxCell>
        <mxCell id="TqzZcvi7zWRWRfFv5Fhy-46" value="" style="shape=mxgraph.bpmn.shape;html=1;verticalLabelPosition=bottom;labelBackgroundColor=#ffffff;verticalAlign=top;perimeter=rhombusPerimeter;background=gateway;outline=none;symbol=parallelGw;fontFamily=Noto Sans Traditional Chinese;fontSource=https%3A%2F%2Ffonts.googleapis.com%2Fcss%3Ffamily%3DNoto%2BSans%2BTraditional%2BChinese;fontStyle=1" parent="1" vertex="1">
          <mxGeometry x="545" y="135" width="50" height="50" as="geometry" />
        </mxCell>
        <mxCell id="TqzZcvi7zWRWRfFv5Fhy-58" value="" style="edgeStyle=orthogonalEdgeStyle;rounded=0;orthogonalLoop=1;jettySize=auto;html=1;fontFamily=Noto Sans Traditional Chinese;fontSource=https%3A%2F%2Ffonts.googleapis.com%2Fcss%3Ffamily%3DNoto%2BSans%2BTraditional%2BChinese;fontStyle=1" parent="1" source="TqzZcvi7zWRWRfFv5Fhy-52" target="TqzZcvi7zWRWRfFv5Fhy-56" edge="1">
          <mxGeometry relative="1" as="geometry" />
        </mxCell>
        <mxCell id="TqzZcvi7zWRWRfFv5Fhy-61" value="" style="edgeStyle=orthogonalEdgeStyle;rounded=0;orthogonalLoop=1;jettySize=auto;html=1;fontFamily=Noto Sans Traditional Chinese;fontSource=https%3A%2F%2Ffonts.googleapis.com%2Fcss%3Ffamily%3DNoto%2BSans%2BTraditional%2BChinese;fontStyle=1" parent="1" source="TqzZcvi7zWRWRfFv5Fhy-52" target="TqzZcvi7zWRWRfFv5Fhy-59" edge="1">
          <mxGeometry relative="1" as="geometry" />
        </mxCell>
        <mxCell id="TqzZcvi7zWRWRfFv5Fhy-52" value="&lt;div&gt;向工程部ALL&lt;span style=&quot;background-color: initial;&quot;&gt;寄出&lt;/span&gt;&lt;/div&gt;&lt;div&gt;&lt;span style=&quot;background-color: initial;&quot;&gt;&lt;br&gt;&lt;/span&gt;&lt;/div&gt;&lt;div&gt;&lt;span style=&quot;background-color: initial;&quot;&gt;請購資訊核對&lt;/span&gt;&lt;span style=&quot;background-color: initial;&quot;&gt;郵件&lt;/span&gt;&lt;/div&gt;" style="html=1;whiteSpace=wrap;rounded=1;fontFamily=Noto Sans Traditional Chinese;fontSource=https%3A%2F%2Ffonts.googleapis.com%2Fcss%3Ffamily%3DNoto%2BSans%2BTraditional%2BChinese;fontStyle=1" parent="1" vertex="1">
          <mxGeometry x="690" y="120" width="120" height="80" as="geometry" />
        </mxCell>
        <mxCell id="TqzZcvi7zWRWRfFv5Fhy-53" value="" style="html=1;shape=plus;fontFamily=Noto Sans Traditional Chinese;fontSource=https%3A%2F%2Ffonts.googleapis.com%2Fcss%3Ffamily%3DNoto%2BSans%2BTraditional%2BChinese;fontStyle=1" parent="TqzZcvi7zWRWRfFv5Fhy-52" vertex="1">
          <mxGeometry x="0.5" y="1" width="14" height="14" relative="1" as="geometry">
            <mxPoint x="-7" y="-14" as="offset" />
          </mxGeometry>
        </mxCell>
        <mxCell id="TqzZcvi7zWRWRfFv5Fhy-56" value="" style="shape=message;whiteSpace=wrap;html=1;fontFamily=Noto Sans Traditional Chinese;fontSource=https%3A%2F%2Ffonts.googleapis.com%2Fcss%3Ffamily%3DNoto%2BSans%2BTraditional%2BChinese;fontStyle=1" parent="1" vertex="1">
          <mxGeometry x="730" y="30" width="40" height="30" as="geometry" />
        </mxCell>
        <mxCell id="TqzZcvi7zWRWRfFv5Fhy-72" value="" style="edgeStyle=orthogonalEdgeStyle;rounded=0;orthogonalLoop=1;jettySize=auto;html=1;" parent="1" source="TqzZcvi7zWRWRfFv5Fhy-59" target="TqzZcvi7zWRWRfFv5Fhy-71" edge="1">
          <mxGeometry relative="1" as="geometry" />
        </mxCell>
        <mxCell id="TqzZcvi7zWRWRfFv5Fhy-59" value="&lt;div&gt;[&amp;nbsp;&lt;span style=&quot;background-color: initial;&quot;&gt;等待核對&amp;nbsp;&lt;/span&gt;&lt;span style=&quot;background-color: initial;&quot;&gt;/&amp;nbsp;&lt;/span&gt;&lt;span style=&quot;background-color: initial;&quot;&gt;排程&lt;/span&gt;&lt;span style=&quot;background-color: initial;&quot;&gt;&amp;nbsp;&lt;/span&gt;&lt;span style=&quot;background-color: initial;&quot;&gt;]&lt;/span&gt;&lt;/div&gt;" style="html=1;whiteSpace=wrap;rounded=1;fontFamily=Noto Sans Traditional Chinese;fontSource=https%3A%2F%2Ffonts.googleapis.com%2Fcss%3Ffamily%3DNoto%2BSans%2BTraditional%2BChinese;fontStyle=1" parent="1" vertex="1">
          <mxGeometry x="870" y="120" width="120" height="80" as="geometry" />
        </mxCell>
        <mxCell id="TqzZcvi7zWRWRfFv5Fhy-60" value="" style="shape=mxgraph.bpmn.timer_start;perimeter=ellipsePerimeter;html=1;labelPosition=right;labelBackgroundColor=#ffffff;align=left;fontFamily=Noto Sans Traditional Chinese;fontSource=https%3A%2F%2Ffonts.googleapis.com%2Fcss%3Ffamily%3DNoto%2BSans%2BTraditional%2BChinese;fontStyle=1" parent="TqzZcvi7zWRWRfFv5Fhy-59" vertex="1">
          <mxGeometry x="1" width="30" height="30" relative="1" as="geometry">
            <mxPoint x="-15" y="10" as="offset" />
          </mxGeometry>
        </mxCell>
        <mxCell id="TqzZcvi7zWRWRfFv5Fhy-69" value="" style="edgeStyle=orthogonalEdgeStyle;rounded=0;orthogonalLoop=1;jettySize=auto;html=1;fontFamily=Noto Sans Traditional Chinese;fontSource=https%3A%2F%2Ffonts.googleapis.com%2Fcss%3Ffamily%3DNoto%2BSans%2BTraditional%2BChinese;fontStyle=1" parent="1" source="TqzZcvi7zWRWRfFv5Fhy-64" target="TqzZcvi7zWRWRfFv5Fhy-68" edge="1">
          <mxGeometry relative="1" as="geometry" />
        </mxCell>
        <mxCell id="TqzZcvi7zWRWRfFv5Fhy-64" value="&lt;div&gt;向申請者&lt;span style=&quot;background-color: initial;&quot;&gt;寄出&lt;/span&gt;&lt;/div&gt;&lt;div&gt;&lt;span style=&quot;background-color: initial;&quot;&gt;&lt;br&gt;&lt;/span&gt;&lt;/div&gt;&lt;div&gt;&lt;span style=&quot;background-color: initial;&quot;&gt;物料資訊修改提醒&lt;/span&gt;&lt;/div&gt;" style="html=1;whiteSpace=wrap;rounded=1;fontFamily=Noto Sans Traditional Chinese;fontSource=https%3A%2F%2Ffonts.googleapis.com%2Fcss%3Ffamily%3DNoto%2BSans%2BTraditional%2BChinese;fontStyle=1" parent="1" vertex="1">
          <mxGeometry x="690" y="260" width="120" height="80" as="geometry" />
        </mxCell>
        <mxCell id="TqzZcvi7zWRWRfFv5Fhy-65" value="" style="html=1;shape=plus;fontFamily=Noto Sans Traditional Chinese;fontSource=https%3A%2F%2Ffonts.googleapis.com%2Fcss%3Ffamily%3DNoto%2BSans%2BTraditional%2BChinese;fontStyle=1" parent="TqzZcvi7zWRWRfFv5Fhy-64" vertex="1">
          <mxGeometry x="0.5" y="1" width="14" height="14" relative="1" as="geometry">
            <mxPoint x="-7" y="-14" as="offset" />
          </mxGeometry>
        </mxCell>
        <mxCell id="TqzZcvi7zWRWRfFv5Fhy-68" value="" style="shape=message;whiteSpace=wrap;html=1;fontFamily=Noto Sans Traditional Chinese;fontSource=https%3A%2F%2Ffonts.googleapis.com%2Fcss%3Ffamily%3DNoto%2BSans%2BTraditional%2BChinese;fontStyle=1" parent="1" vertex="1">
          <mxGeometry x="730" y="400" width="40" height="30" as="geometry" />
        </mxCell>
        <mxCell id="TqzZcvi7zWRWRfFv5Fhy-78" value="" style="edgeStyle=orthogonalEdgeStyle;rounded=0;orthogonalLoop=1;jettySize=auto;html=1;" parent="1" source="TqzZcvi7zWRWRfFv5Fhy-71" target="TqzZcvi7zWRWRfFv5Fhy-77" edge="1">
          <mxGeometry relative="1" as="geometry" />
        </mxCell>
        <mxCell id="TqzZcvi7zWRWRfFv5Fhy-79" value="通過" style="edgeLabel;html=1;align=center;verticalAlign=middle;resizable=0;points=[];" parent="TqzZcvi7zWRWRfFv5Fhy-78" vertex="1" connectable="0">
          <mxGeometry x="-0.6851" y="-2" relative="1" as="geometry">
            <mxPoint x="2" y="11" as="offset" />
          </mxGeometry>
        </mxCell>
        <mxCell id="TqzZcvi7zWRWRfFv5Fhy-71" value="&lt;span style=&quot;font-weight: 700;&quot;&gt;ERP&lt;/span&gt;&lt;div style=&quot;font-weight: 700;&quot;&gt;&lt;span style=&quot;background-color: initial;&quot;&gt;物料單價&lt;/span&gt;&lt;/div&gt;&lt;div style=&quot;font-weight: 700;&quot;&gt;&lt;span style=&quot;background-color: initial;&quot;&gt;初核對&lt;/span&gt;&lt;br&gt;&lt;/div&gt;" style="rhombus;whiteSpace=wrap;html=1;fontFamily=Noto Sans Traditional Chinese;fontSource=https%3A%2F%2Ffonts.googleapis.com%2Fcss%3Ffamily%3DNoto%2BSans%2BTraditional%2BChinese;" parent="1" vertex="1">
          <mxGeometry x="890" y="260" width="80" height="80" as="geometry" />
        </mxCell>
        <mxCell id="6lyfN-rFkKTdbZu22b-i-5" style="edgeStyle=orthogonalEdgeStyle;rounded=0;orthogonalLoop=1;jettySize=auto;html=1;" edge="1" parent="1" source="TqzZcvi7zWRWRfFv5Fhy-77" target="6lyfN-rFkKTdbZu22b-i-4">
          <mxGeometry relative="1" as="geometry" />
        </mxCell>
        <mxCell id="TqzZcvi7zWRWRfFv5Fhy-77" value="&lt;div&gt;&lt;span style=&quot;background-color: initial;&quot;&gt;寫入公司請購&lt;/span&gt;&lt;span style=&quot;background-color: initial;&quot;&gt;資料庫&lt;/span&gt;&lt;/div&gt;&lt;div&gt;&lt;span style=&quot;background-color: initial;&quot;&gt;&lt;br&gt;&lt;/span&gt;&lt;/div&gt;&lt;div&gt;&lt;span style=&quot;background-color: initial;&quot;&gt;進入簽核程序&lt;/span&gt;&lt;/div&gt;" style="shape=ext;rounded=1;html=1;whiteSpace=wrap;fontFamily=Noto Sans Traditional Chinese;fontSource=https%3A%2F%2Ffonts.googleapis.com%2Fcss%3Ffamily%3DNoto%2BSans%2BTraditional%2BChinese;fontStyle=1" parent="1" vertex="1">
          <mxGeometry x="870" y="400" width="120" height="80" as="geometry" />
        </mxCell>
        <mxCell id="TqzZcvi7zWRWRfFv5Fhy-81" style="edgeStyle=orthogonalEdgeStyle;rounded=0;orthogonalLoop=1;jettySize=auto;html=1;entryX=0.5;entryY=0;entryDx=0;entryDy=0;" parent="1" target="TqzZcvi7zWRWRfFv5Fhy-71" edge="1">
          <mxGeometry relative="1" as="geometry">
            <Array as="points">
              <mxPoint x="1010" y="300" />
              <mxPoint x="1010" y="240" />
              <mxPoint x="930" y="240" />
            </Array>
            <mxPoint x="970" y="300" as="sourcePoint" />
          </mxGeometry>
        </mxCell>
        <mxCell id="6lyfN-rFkKTdbZu22b-i-38" value="" style="edgeStyle=orthogonalEdgeStyle;rounded=0;orthogonalLoop=1;jettySize=auto;html=1;" edge="1" parent="1" source="6lyfN-rFkKTdbZu22b-i-1" target="6lyfN-rFkKTdbZu22b-i-36">
          <mxGeometry relative="1" as="geometry" />
        </mxCell>
        <mxCell id="6lyfN-rFkKTdbZu22b-i-1" value="[ 等待採購 ]" style="html=1;whiteSpace=wrap;rounded=1;fontFamily=Noto Sans Traditional Chinese;fontSource=https%3A%2F%2Ffonts.googleapis.com%2Fcss%3Ffamily%3DNoto%2BSans%2BTraditional%2BChinese;fontStyle=1" vertex="1" parent="1">
          <mxGeometry x="690" y="540" width="120" height="80" as="geometry" />
        </mxCell>
        <mxCell id="6lyfN-rFkKTdbZu22b-i-2" value="" style="shape=mxgraph.bpmn.timer_start;perimeter=ellipsePerimeter;html=1;labelPosition=right;labelBackgroundColor=#ffffff;align=left;fontFamily=Noto Sans Traditional Chinese;fontSource=https%3A%2F%2Ffonts.googleapis.com%2Fcss%3Ffamily%3DNoto%2BSans%2BTraditional%2BChinese;fontStyle=1" vertex="1" parent="6lyfN-rFkKTdbZu22b-i-1">
          <mxGeometry x="1" width="30" height="30" relative="1" as="geometry">
            <mxPoint x="-15" y="10" as="offset" />
          </mxGeometry>
        </mxCell>
        <mxCell id="6lyfN-rFkKTdbZu22b-i-6" value="" style="edgeStyle=orthogonalEdgeStyle;rounded=0;orthogonalLoop=1;jettySize=auto;html=1;" edge="1" parent="1" source="6lyfN-rFkKTdbZu22b-i-4" target="6lyfN-rFkKTdbZu22b-i-1">
          <mxGeometry relative="1" as="geometry" />
        </mxCell>
        <mxCell id="6lyfN-rFkKTdbZu22b-i-12" value="通過" style="edgeLabel;html=1;align=center;verticalAlign=middle;resizable=0;points=[];" vertex="1" connectable="0" parent="6lyfN-rFkKTdbZu22b-i-6">
          <mxGeometry x="-0.175" y="1" relative="1" as="geometry">
            <mxPoint as="offset" />
          </mxGeometry>
        </mxCell>
        <mxCell id="6lyfN-rFkKTdbZu22b-i-9" style="edgeStyle=orthogonalEdgeStyle;rounded=0;orthogonalLoop=1;jettySize=auto;html=1;entryX=0.5;entryY=0;entryDx=0;entryDy=0;" edge="1" parent="1" source="6lyfN-rFkKTdbZu22b-i-4" target="TqzZcvi7zWRWRfFv5Fhy-71">
          <mxGeometry relative="1" as="geometry">
            <Array as="points">
              <mxPoint x="1010" y="580" />
              <mxPoint x="1010" y="240" />
              <mxPoint x="930" y="240" />
            </Array>
          </mxGeometry>
        </mxCell>
        <mxCell id="6lyfN-rFkKTdbZu22b-i-45" value="問題排解" style="edgeLabel;html=1;align=center;verticalAlign=middle;resizable=0;points=[];" vertex="1" connectable="0" parent="6lyfN-rFkKTdbZu22b-i-9">
          <mxGeometry x="0.7778" relative="1" as="geometry">
            <mxPoint x="7" as="offset" />
          </mxGeometry>
        </mxCell>
        <mxCell id="6lyfN-rFkKTdbZu22b-i-4" value="&lt;div style=&quot;font-weight: 700;&quot;&gt;簽核&lt;/div&gt;" style="rhombus;whiteSpace=wrap;html=1;fontFamily=Noto Sans Traditional Chinese;fontSource=https%3A%2F%2Ffonts.googleapis.com%2Fcss%3Ffamily%3DNoto%2BSans%2BTraditional%2BChinese;" vertex="1" parent="1">
          <mxGeometry x="890" y="540" width="80" height="80" as="geometry" />
        </mxCell>
        <mxCell id="6lyfN-rFkKTdbZu22b-i-24" value="" style="edgeStyle=orthogonalEdgeStyle;rounded=0;orthogonalLoop=1;jettySize=auto;html=1;" edge="1" parent="1" source="6lyfN-rFkKTdbZu22b-i-13" target="6lyfN-rFkKTdbZu22b-i-23">
          <mxGeometry relative="1" as="geometry" />
        </mxCell>
        <mxCell id="6lyfN-rFkKTdbZu22b-i-49" value="" style="edgeStyle=orthogonalEdgeStyle;rounded=0;orthogonalLoop=1;jettySize=auto;html=1;" edge="1" parent="1" source="6lyfN-rFkKTdbZu22b-i-13" target="6lyfN-rFkKTdbZu22b-i-48">
          <mxGeometry relative="1" as="geometry" />
        </mxCell>
        <mxCell id="6lyfN-rFkKTdbZu22b-i-13" value="驗貨&lt;div&gt;&amp;amp;&lt;/div&gt;&lt;div&gt;向資材部&lt;span style=&quot;background-color: initial;&quot;&gt;回信已驗收&lt;/span&gt;&lt;/div&gt;" style="html=1;whiteSpace=wrap;rounded=1;fontFamily=Noto Sans Traditional Chinese;fontSource=https%3A%2F%2Ffonts.googleapis.com%2Fcss%3Ffamily%3DNoto%2BSans%2BTraditional%2BChinese;fontStyle=1" vertex="1" parent="1">
          <mxGeometry x="150" y="540" width="120" height="80" as="geometry" />
        </mxCell>
        <mxCell id="6lyfN-rFkKTdbZu22b-i-14" value="" style="html=1;shape=message;fontFamily=Noto Sans Traditional Chinese;fontSource=https%3A%2F%2Ffonts.googleapis.com%2Fcss%3Ffamily%3DNoto%2BSans%2BTraditional%2BChinese;fontStyle=1" vertex="1" parent="6lyfN-rFkKTdbZu22b-i-13">
          <mxGeometry width="20" height="14" relative="1" as="geometry">
            <mxPoint x="7" y="7" as="offset" />
          </mxGeometry>
        </mxCell>
        <mxCell id="6lyfN-rFkKTdbZu22b-i-22" style="edgeStyle=orthogonalEdgeStyle;rounded=0;orthogonalLoop=1;jettySize=auto;html=1;" edge="1" parent="1" source="6lyfN-rFkKTdbZu22b-i-15" target="6lyfN-rFkKTdbZu22b-i-13">
          <mxGeometry relative="1" as="geometry" />
        </mxCell>
        <mxCell id="6lyfN-rFkKTdbZu22b-i-15" value="&lt;div&gt;&lt;span style=&quot;background-color: initial;&quot;&gt;接收資材部&lt;/span&gt;&lt;/div&gt;&lt;div&gt;&lt;span style=&quot;background-color: initial;&quot;&gt;&lt;br&gt;&lt;/span&gt;&lt;/div&gt;&lt;div&gt;&lt;span style=&quot;background-color: initial;&quot;&gt;驗收&lt;/span&gt;&lt;span style=&quot;background-color: initial;&quot;&gt;郵件&lt;/span&gt;&lt;br&gt;&lt;/div&gt;" style="html=1;whiteSpace=wrap;rounded=1;fontFamily=Noto Sans Traditional Chinese;fontSource=https%3A%2F%2Ffonts.googleapis.com%2Fcss%3Ffamily%3DNoto%2BSans%2BTraditional%2BChinese;fontStyle=1" vertex="1" parent="1">
          <mxGeometry x="330" y="540" width="120" height="80" as="geometry" />
        </mxCell>
        <mxCell id="6lyfN-rFkKTdbZu22b-i-16" value="" style="html=1;shape=plus;fontFamily=Noto Sans Traditional Chinese;fontSource=https%3A%2F%2Ffonts.googleapis.com%2Fcss%3Ffamily%3DNoto%2BSans%2BTraditional%2BChinese;fontStyle=1" vertex="1" parent="6lyfN-rFkKTdbZu22b-i-15">
          <mxGeometry x="0.5" y="1" width="14" height="14" relative="1" as="geometry">
            <mxPoint x="-7" y="-14" as="offset" />
          </mxGeometry>
        </mxCell>
        <mxCell id="6lyfN-rFkKTdbZu22b-i-21" style="edgeStyle=orthogonalEdgeStyle;rounded=0;orthogonalLoop=1;jettySize=auto;html=1;" edge="1" parent="1" source="6lyfN-rFkKTdbZu22b-i-17" target="6lyfN-rFkKTdbZu22b-i-15">
          <mxGeometry relative="1" as="geometry" />
        </mxCell>
        <mxCell id="6lyfN-rFkKTdbZu22b-i-17" value="" style="shape=message;whiteSpace=wrap;html=1;fontFamily=Noto Sans Traditional Chinese;fontSource=https%3A%2F%2Ffonts.googleapis.com%2Fcss%3Ffamily%3DNoto%2BSans%2BTraditional%2BChinese;fontStyle=1" vertex="1" parent="1">
          <mxGeometry x="370" y="670" width="40" height="30" as="geometry" />
        </mxCell>
        <mxCell id="6lyfN-rFkKTdbZu22b-i-23" value="" style="shape=message;whiteSpace=wrap;html=1;fontFamily=Noto Sans Traditional Chinese;fontSource=https%3A%2F%2Ffonts.googleapis.com%2Fcss%3Ffamily%3DNoto%2BSans%2BTraditional%2BChinese;fontStyle=1" vertex="1" parent="1">
          <mxGeometry x="50" y="565" width="40" height="30" as="geometry" />
        </mxCell>
        <mxCell id="6lyfN-rFkKTdbZu22b-i-33" value="" style="edgeStyle=orthogonalEdgeStyle;rounded=0;orthogonalLoop=1;jettySize=auto;html=1;" edge="1" parent="1" source="6lyfN-rFkKTdbZu22b-i-29" target="TqzZcvi7zWRWRfFv5Fhy-46">
          <mxGeometry relative="1" as="geometry" />
        </mxCell>
        <mxCell id="6lyfN-rFkKTdbZu22b-i-29" value="&lt;div&gt;[ 排程 /&amp;nbsp;&lt;span style=&quot;background-color: initial;&quot;&gt;集單&amp;nbsp;&lt;/span&gt;&lt;span style=&quot;background-color: initial;&quot;&gt;]&lt;/span&gt;&lt;/div&gt;" style="html=1;whiteSpace=wrap;rounded=1;fontFamily=Noto Sans Traditional Chinese;fontSource=https%3A%2F%2Ffonts.googleapis.com%2Fcss%3Ffamily%3DNoto%2BSans%2BTraditional%2BChinese;fontStyle=1" vertex="1" parent="1">
          <mxGeometry x="330" y="120" width="120" height="80" as="geometry" />
        </mxCell>
        <mxCell id="6lyfN-rFkKTdbZu22b-i-30" value="" style="shape=mxgraph.bpmn.timer_start;perimeter=ellipsePerimeter;html=1;labelPosition=right;labelBackgroundColor=#ffffff;align=left;fontFamily=Noto Sans Traditional Chinese;fontSource=https%3A%2F%2Ffonts.googleapis.com%2Fcss%3Ffamily%3DNoto%2BSans%2BTraditional%2BChinese;fontStyle=1" vertex="1" parent="6lyfN-rFkKTdbZu22b-i-29">
          <mxGeometry x="1" width="30" height="30" relative="1" as="geometry">
            <mxPoint x="-15" y="10" as="offset" />
          </mxGeometry>
        </mxCell>
        <mxCell id="6lyfN-rFkKTdbZu22b-i-39" value="" style="edgeStyle=orthogonalEdgeStyle;rounded=0;orthogonalLoop=1;jettySize=auto;html=1;" edge="1" parent="1" source="6lyfN-rFkKTdbZu22b-i-36" target="6lyfN-rFkKTdbZu22b-i-15">
          <mxGeometry relative="1" as="geometry" />
        </mxCell>
        <mxCell id="6lyfN-rFkKTdbZu22b-i-42" style="edgeStyle=orthogonalEdgeStyle;rounded=0;orthogonalLoop=1;jettySize=auto;html=1;dashed=1;" edge="1" parent="1" source="6lyfN-rFkKTdbZu22b-i-36" target="6lyfN-rFkKTdbZu22b-i-40">
          <mxGeometry relative="1" as="geometry" />
        </mxCell>
        <mxCell id="6lyfN-rFkKTdbZu22b-i-44" value="自行收貨" style="edgeLabel;html=1;align=center;verticalAlign=middle;resizable=0;points=[];" vertex="1" connectable="0" parent="6lyfN-rFkKTdbZu22b-i-42">
          <mxGeometry x="-0.0857" y="-4" relative="1" as="geometry">
            <mxPoint x="4" as="offset" />
          </mxGeometry>
        </mxCell>
        <mxCell id="6lyfN-rFkKTdbZu22b-i-36" value="資材入庫&lt;div&gt;or&lt;/div&gt;&lt;div&gt;自行收貨&lt;/div&gt;" style="rhombus;whiteSpace=wrap;html=1;fontFamily=Noto Sans Traditional Chinese;fontSource=https%3A%2F%2Ffonts.googleapis.com%2Fcss%3Ffamily%3DNoto%2BSans%2BTraditional%2BChinese;fontStyle=1" vertex="1" parent="1">
          <mxGeometry x="530" y="540" width="80" height="80" as="geometry" />
        </mxCell>
        <mxCell id="6lyfN-rFkKTdbZu22b-i-37" style="edgeStyle=orthogonalEdgeStyle;rounded=0;orthogonalLoop=1;jettySize=auto;html=1;exitX=0.5;exitY=1;exitDx=0;exitDy=0;" edge="1" parent="1" source="TqzZcvi7zWRWRfFv5Fhy-23" target="TqzZcvi7zWRWRfFv5Fhy-23">
          <mxGeometry relative="1" as="geometry" />
        </mxCell>
        <mxCell id="6lyfN-rFkKTdbZu22b-i-43" style="edgeStyle=orthogonalEdgeStyle;rounded=0;orthogonalLoop=1;jettySize=auto;html=1;" edge="1" parent="1" source="6lyfN-rFkKTdbZu22b-i-40" target="6lyfN-rFkKTdbZu22b-i-15">
          <mxGeometry relative="1" as="geometry">
            <Array as="points">
              <mxPoint x="470" y="730" />
              <mxPoint x="470" y="580" />
            </Array>
          </mxGeometry>
        </mxCell>
        <mxCell id="6lyfN-rFkKTdbZu22b-i-40" value="繳回&lt;div&gt;&lt;span style=&quot;background-color: initial;&quot;&gt;銷貨單據&lt;/span&gt;&lt;br&gt;&lt;/div&gt;" style="html=1;whiteSpace=wrap;rounded=1;fontFamily=Noto Sans Traditional Chinese;fontSource=https%3A%2F%2Ffonts.googleapis.com%2Fcss%3Ffamily%3DNoto%2BSans%2BTraditional%2BChinese;fontStyle=1" vertex="1" parent="1">
          <mxGeometry x="510" y="690" width="120" height="80" as="geometry" />
        </mxCell>
        <mxCell id="6lyfN-rFkKTdbZu22b-i-41" value="" style="html=1;shape=plus;fontFamily=Noto Sans Traditional Chinese;fontSource=https%3A%2F%2Ffonts.googleapis.com%2Fcss%3Ffamily%3DNoto%2BSans%2BTraditional%2BChinese;fontStyle=1" vertex="1" parent="6lyfN-rFkKTdbZu22b-i-40">
          <mxGeometry x="0.5" y="1" width="14" height="14" relative="1" as="geometry">
            <mxPoint x="-7" y="-14" as="offset" />
          </mxGeometry>
        </mxCell>
        <mxCell id="6lyfN-rFkKTdbZu22b-i-48" value="公司撥款給廠商&lt;div&gt;&lt;br&gt;&lt;/div&gt;&lt;div&gt;FINISH&lt;/div&gt;" style="shape=ext;rounded=1;html=1;whiteSpace=wrap;fontFamily=Noto Sans Traditional Chinese;fontSource=https%3A%2F%2Ffonts.googleapis.com%2Fcss%3Ffamily%3DNoto%2BSans%2BTraditional%2BChinese;fontStyle=1;fillColor=#d0cee2;strokeColor=#56517e;" vertex="1" parent="1">
          <mxGeometry x="150" y="690" width="120" height="80" as="geometry" />
        </mxCell>
        <mxCell id="6lyfN-rFkKTdbZu22b-i-51" value="" style="group" vertex="1" connectable="0" parent="1">
          <mxGeometry x="760" y="670" width="240" height="120" as="geometry" />
        </mxCell>
        <mxCell id="6lyfN-rFkKTdbZu22b-i-50" value="" style="rounded=1;whiteSpace=wrap;html=1;fillColor=#d5e8d4;strokeColor=#82b366;fontFamily=Noto Sans Traditional Chinese;fontSource=https%3A%2F%2Ffonts.googleapis.com%2Fcss%3Ffamily%3DNoto%2BSans%2BTraditional%2BChinese;fontStyle=0;fontSize=28;" vertex="1" parent="6lyfN-rFkKTdbZu22b-i-51">
          <mxGeometry width="240" height="120" as="geometry" />
        </mxCell>
        <mxCell id="6lyfN-rFkKTdbZu22b-i-35" value="&lt;font data-font-src=&quot;https://fonts.googleapis.com/css?family=Noto+Sans+Traditional+Chinese&quot; style=&quot;font-size: 28px;&quot;&gt;常規請購流程&lt;/font&gt;" style="rounded=1;whiteSpace=wrap;html=1;fillColor=#d5e8d4;strokeColor=#82b366;fontFamily=Noto Sans Traditional Chinese;fontSource=https%3A%2F%2Ffonts.googleapis.com%2Fcss%3Ffamily%3DNoto%2BSans%2BTraditional%2BChinese;fontStyle=0;fontSize=28;" vertex="1" parent="6lyfN-rFkKTdbZu22b-i-51">
          <mxGeometry x="5" y="5" width="230" height="110" as="geometry" />
        </mxCell>
      </root>
    </mxGraphModel>
  </diagram>
</mxfile>
